<?xml version="1.0" encoding="UTF-8"?>
<svg id="Layer_1" data-name="Layer 1" xmlns="http://www.w3.org/2000/svg" viewBox="0 0 817.71 635.79">
  <defs>
    <style>
      .cls-1 {
        fill: #604cc3;
      }

      .cls-1, .cls-2 {
        stroke: #000;
        stroke-miterlimit: 10;
        stroke-width: 7px;
      }

      .cls-2 {
        fill: #8fd14f;
      }
    </style>
  </defs>
  <path class="cls-2" d="m53.4,4.22l370.26-.72,94.16,119.4-389.92,1.38v73.77h229.98c25.06,17.84,37.61,40.02,37.61,66.53v200.33c0,18.33-18.57,31.82-55.69,40.5h-106.9l-105.59-113.54h137.27v-80.28H59.19c-37.13,0-55.69-15.66-55.69-47.01V52.68C3.5,27.13,20.13,10.98,53.4,4.22Z"/>
  <path class="cls-1" d="m424.39,3.5h344.98c29.89,15.44,44.84,41.95,44.84,79.55v189.48l-228.53,143.19v-148.98l94.74-61.47v-85.34h-133.79l.28,429.85-122.23,79.55-.28-625.84Z"/>
</svg>