<?xml version="1.0" encoding="UTF-8"?>
<svg id="Layer_1" data-name="Layer 1" xmlns="http://www.w3.org/2000/svg" viewBox="0 0 788.28 323.46">
  <defs>
    <style>
      .cls-1 {
        fill: #604cc3;
      }

      .cls-1, .cls-2 {
        stroke: #000;
        stroke-miterlimit: 10;
        stroke-width: 7px;
      }

      .cls-2 {
        fill: #8fd14f;
      }
    </style>
  </defs>
  <g>
    <path class="cls-2" d="m28.29,3.86l183.92-.36,46.77,59.31-193.69.68v36.64h114.24c12.45,8.86,18.68,19.88,18.68,33.05v99.51c0,9.1-9.22,15.81-27.66,20.12h-53.1l-52.45-56.4h68.19v-39.88H31.16c-18.44,0-27.66-7.78-27.66-23.35V27.93C3.5,15.24,11.76,7.22,28.29,3.86Z"/>
    <path class="cls-1" d="m212.57,3.5h171.36c14.85,7.67,22.27,20.84,22.27,39.52v94.12l-113.52,71.13v-74l47.06-30.53v-42.39h-66.46l.14,213.52-60.72,39.52-.14-310.88Z"/>
  </g>
  <path d="m406.44,172.93c0,1.97,1.95,3.63,5.85,5,1.25.46,3.24,1.06,5.96,1.77l1.67.48,1.72.48c1.29.36,2.45.7,3.49,1.02,5.66,1.75,9.94,3.87,12.84,6.34,3.87,3.33,5.8,7.63,5.8,12.89,0,9.74-4.66,16.56-13.96,20.46-4.69,1.93-9.36,2.9-14.02,2.9-7.81,0-14.04-1.56-18.69-4.67-2.33-1.54-3.89-3.1-4.67-4.67l4.67-14.02c.79,1.58,2.15,3.13,4.08,4.67,3.9,3.12,8.77,4.67,14.61,4.67,2.33,0,4.65-.39,6.98-1.18,4.69-1.54,7.04-4.26,7.04-8.16,0-1.97-1.95-3.63-5.85-5-1.25-.46-3.26-1.07-6.02-1.83l-1.67-.43-1.67-.48c-1.33-.36-2.49-.7-3.49-1.02-5.69-1.75-9.97-3.87-12.84-6.34-3.9-3.33-5.85-7.63-5.85-12.89,0-9.74,3.88-16.56,11.66-20.46,3.9-1.93,7.81-2.9,11.71-2.9,4.26,0,8.09.48,11.49,1.45,2.72.79,5.12,1.86,7.2,3.22,2.33,1.54,3.87,3.1,4.62,4.67l-4.62,14.02c-.79-1.57-2.17-3.13-4.14-4.67-1.68-1.36-3.6-2.44-5.75-3.22-2.69-.97-5.62-1.45-8.81-1.45-1.58,0-3.13.38-4.67,1.13-1.36.68-2.44,1.61-3.22,2.79-.97,1.47-1.45,3.28-1.45,5.42Z"/>
  <path d="m512.87,213.32c-7.27,7.3-16.06,10.96-26.37,10.96s-19.16-3.65-26.43-10.96c-7.3-7.27-10.96-16.08-10.96-26.43s3.65-19.1,10.96-26.37c7.27-7.31,16.08-10.96,26.43-10.96s19.1,3.65,26.37,10.96c7.3,7.27,10.96,16.06,10.96,26.37s-3.65,19.16-10.96,26.43Zm-42.92-42.91c-4.55,4.55-6.82,10.04-6.82,16.49s2.27,12,6.82,16.54c4.55,4.55,10.06,6.82,16.54,6.82s11.94-2.27,16.49-6.82,6.82-10.06,6.82-16.54-2.27-11.94-6.82-16.49c-4.55-4.55-10.04-6.82-16.49-6.82s-12,2.28-16.54,6.82Z"/>
  <path d="m545.55,149.57v51.35c0,1.58.48,3.13,1.45,4.67.86,1.36,2.02,2.44,3.49,3.22,1.79.97,4.03,1.45,6.71,1.45s4.94-.48,6.77-1.45c1.47-.79,2.61-1.86,3.44-3.22,1-1.54,1.5-3.1,1.5-4.67v-51.35h13.96v51.35c0,3.9-1.06,7.81-3.17,11.71-1.9,3.4-4.44,6.07-7.63,8-4.01,2.44-8.97,3.65-14.88,3.65-10.71,0-18.19-3.88-22.45-11.65-2.15-3.9-3.22-7.81-3.22-11.71v-51.35h14.02Z"/>
  <path d="m660.04,224.28h-14.02v-42.05l-18.64,18.69-18.69-18.69v42.05h-14.02v-74.71l32.71,32.66,32.66-32.66v74.71Z"/>
  <path d="m718.99,224.28h-13.96l-3.22-8.49h-21.65l-3.17,8.49h-14.02l28.04-74.71,27.98,74.71Zm-35.02-18.69h14.02l-6.98-18.69-7.04,18.69Z"/>
  <path d="m787.5,224.28h-14.02v-42.05l-18.64,18.69-18.69-18.69v42.05h-14.02v-74.71l32.71,32.66,32.66-32.66v74.71Z"/>
  <path d="m289.35,314.11v-74.71h28.04c3.87,0,7.75.97,11.66,2.9,3.4,1.72,6.07,4.03,8,6.93,2.43,3.65,3.65,8.16,3.65,13.54s-1.22,9.83-3.65,13.48c-1.93,2.9-4.6,5.21-8,6.93-3.9,1.93-7.79,2.9-11.66,2.9h-14.02v28.04h-14.02Zm28.04-42.06c1.54,0,3.1-.38,4.67-1.13,3.12-1.58,4.67-4.3,4.67-8.16s-1.56-6.64-4.67-8.22c-1.58-.75-3.13-1.13-4.67-1.13h-14.02v18.64h14.02Z"/>
  <path d="m362.21,239.4v60.69h37.33v14.02h-51.35v-74.71h14.02Z"/>
  <path d="m459.08,314.11h-13.96l-3.22-8.49h-21.65l-3.17,8.49h-14.02l28.04-74.71,27.98,74.71Zm-35.02-18.69h14.02l-6.98-18.69-7.04,18.69Z"/>
  <path d="m473.83,262.76c0,1.97,1.95,3.63,5.86,5,1.25.47,3.24,1.06,5.96,1.77l1.67.48,1.72.48c1.29.36,2.45.7,3.49,1.02,5.66,1.75,9.94,3.87,12.84,6.34,3.87,3.33,5.8,7.63,5.8,12.89,0,9.74-4.66,16.56-13.96,20.46-4.69,1.93-9.37,2.9-14.02,2.9-7.81,0-14.04-1.56-18.69-4.67-2.33-1.54-3.88-3.1-4.67-4.67l4.67-14.02c.79,1.58,2.15,3.13,4.08,4.67,3.9,3.12,8.77,4.67,14.61,4.67,2.33,0,4.65-.39,6.98-1.18,4.69-1.54,7.04-4.26,7.04-8.16,0-1.97-1.95-3.63-5.86-5-1.25-.46-3.26-1.07-6.02-1.83l-1.66-.43-1.67-.48c-1.32-.36-2.49-.7-3.49-1.02-5.69-1.75-9.97-3.87-12.84-6.34-3.9-3.33-5.85-7.63-5.85-12.89,0-9.74,3.88-16.56,11.65-20.46,3.9-1.93,7.81-2.9,11.71-2.9,4.26,0,8.09.48,11.49,1.45,2.72.79,5.12,1.86,7.2,3.22,2.33,1.54,3.87,3.1,4.62,4.67l-4.62,14.02c-.79-1.58-2.17-3.13-4.13-4.67-1.68-1.36-3.6-2.43-5.75-3.22-2.69-.97-5.62-1.45-8.81-1.45-1.58,0-3.13.38-4.67,1.13-1.36.68-2.44,1.61-3.22,2.79-.97,1.47-1.45,3.28-1.45,5.42Z"/>
  <path d="m562.86,239.4v14.02h-18.64v60.69h-14.02v-60.69h-18.69v-14.02h51.35Z"/>
  <path d="m566.11,239.4h14.02v74.71h-14.02v-74.71Z"/>
  <path d="m650.51,303.15c.64,2.61,2.65,5.21,6.02,7.79.57.47,1.18.91,1.83,1.34.5.32,1.02.64,1.56.97.21.11.43.23.64.38.14.07.29.16.43.27l.43.21-9.35,9.35c-4.94-3.29-9.22-7.48-12.84-12.57-4.83,2.15-9.88,3.22-15.15,3.22-10.35,0-19.16-3.65-26.43-10.96-7.3-7.27-10.96-16.06-10.96-26.37s3.65-19.16,10.96-26.43c7.27-7.3,16.08-10.96,26.43-10.96s19.1,3.65,26.37,10.96c7.3,7.27,10.96,16.08,10.96,26.43s-3.63,19.1-10.9,26.37Zm-49.79-26.37c0,6.45,2.27,11.94,6.82,16.49,4.55,4.55,10.06,6.82,16.54,6.82s11.94-2.27,16.49-6.82,6.82-10.04,6.82-16.49-2.27-12-6.82-16.54c-4.55-4.55-10.04-6.82-16.49-6.82s-12,2.27-16.54,6.82-6.82,10.06-6.82,16.54Z"/>
  <path d="m683.14,239.4v51.35c0,1.58.48,3.13,1.45,4.67.86,1.36,2.02,2.44,3.49,3.22,1.79.97,4.03,1.45,6.71,1.45s4.94-.48,6.77-1.45c1.47-.79,2.61-1.86,3.44-3.22,1-1.54,1.5-3.1,1.5-4.67v-51.35h13.96v51.35c0,3.9-1.06,7.81-3.17,11.71-1.9,3.4-4.44,6.07-7.63,8-4.01,2.44-8.97,3.65-14.88,3.65-10.71,0-18.19-3.88-22.45-11.66-2.15-3.9-3.22-7.81-3.22-11.71v-51.35h14.02Z"/>
  <path d="m788.28,239.4v14.02h-42v16.33h42v14.02h-42v16.33h42v14.02h-56.02v-74.71h56.02Z"/>
</svg>